<?xml version="1.0" encoding="UTF-8" standalone="no" ?>
<!DOCTYPE svg PUBLIC "-//W3C//DTD SVG 1.1//EN" "http://www.w3.org/Graphics/SVG/1.1/DTD/svg11.dtd">
<svg xmlns="http://www.w3.org/2000/svg" xmlns:xlink="http://www.w3.org/1999/xlink" version="1.1" width="500" height="500" viewBox="0 0 500 500" xml:space="preserve">
<desc>Created with Fabric.js 4.6.0</desc>
<defs>
</defs>
<g transform="matrix(4.3 4.3 -4.3 4.3 250 250)" id="Sn5IVKgYwNhVh_HUqQ_Jh"  >
<path style="stroke: rgb(185,146,190); stroke-width: 0; stroke-dasharray: none; stroke-linecap: butt; stroke-dashoffset: 0; stroke-linejoin: miter; stroke-miterlimit: 4; fill: rgb(63,78,79); fill-rule: nonzero; opacity: 1;" vector-effect="non-scaling-stroke"  transform=" translate(0, 0)" d="M -34.53039 -25.5847 C -34.53039 -30.525270000000003 -30.52527 -34.530390000000004 -25.584699999999998 -34.530390000000004 L 25.679320000000004 -34.530390000000004 L 25.679320000000004 -34.530390000000004 C 30.567630000000005 -34.530390000000004 34.53038000000001 -30.567640000000004 34.53038000000001 -25.679330000000004 L 34.53038000000001 25.679319999999993 L 34.53038000000001 25.679319999999993 C 34.53038000000001 30.567629999999994 30.56763000000001 34.530379999999994 25.679320000000008 34.530379999999994 L -25.67932999999999 34.530379999999994 L -25.67932999999999 34.530379999999994 C -30.56763999999999 34.530379999999994 -34.53038999999999 30.567629999999994 -34.53038999999999 25.679319999999993 z" stroke-linecap="round" />
</g>
<g transform="matrix(-0.71 0.71 -0.71 -0.71 250 250)" id="x__IQWKVfBsTbzl_ujIv3"  >
<g style="" vector-effect="non-scaling-stroke"   >
		<g transform="matrix(1 0 0 1 -0.2 -90)" id="EcE7XdgbteWpTdOtr4rfO"  >
<g style="" vector-effect="non-scaling-stroke"   >
		<g transform="matrix(1.21 0 0 1.21 -89.8 0)" id="Jzfc8EavhAf0Ivuvar24-"  >
<path style="stroke: rgb(236,16,124); stroke-width: 0; stroke-dasharray: none; stroke-linecap: butt; stroke-dashoffset: 0; stroke-linejoin: miter; stroke-miterlimit: 4; fill: rgb(162,123,92); fill-rule: nonzero; opacity: 1;" vector-effect="non-scaling-stroke"  transform=" translate(0, 0)" d="M 0 -49.50495 C 27.32673 -49.50495 49.50495 -27.32673 49.50495 0 C 49.50495 27.32673 27.32673 49.50495 0 49.50495 C -27.32673 49.50495 -49.50495 27.32673 -49.50495 0 C -49.50495 -27.32673 -27.32673 -49.50495 0 -49.50495 z" stroke-linecap="round" />
</g>
		<g transform="matrix(1.21 0 0 1.21 90 0)" id="MBUy5l11pyqYuMFdm72Ry"  >
<path style="stroke: rgb(236,16,124); stroke-width: 0; stroke-dasharray: none; stroke-linecap: butt; stroke-dashoffset: 0; stroke-linejoin: miter; stroke-miterlimit: 4; fill: rgb(162,123,92); fill-rule: nonzero; opacity: 1;" vector-effect="non-scaling-stroke"  transform=" translate(0, 0)" d="M 0 -49.50495 C 27.32673 -49.50495 49.50495 -27.32673 49.50495 0 C 49.50495 27.32673 27.32673 49.50495 0 49.50495 C -27.32673 49.50495 -49.50495 27.32673 -49.50495 0 C -49.50495 -27.32673 -27.32673 -49.50495 0 -49.50495 z" stroke-linecap="round" />
</g>
</g>
</g>
		<g transform="matrix(1 0 0 1 0.2 90)" id="XqIiMqqCaiVulV7EJlsVU"  >
<g style="" vector-effect="non-scaling-stroke"   >
		<g transform="matrix(1 0 0 1 0 -0.1)" id="lsYnWPUvgLb8Je-DvzEq4"  >
<g style="" vector-effect="non-scaling-stroke"   >
		<g transform="matrix(1.21 0 0 1.21 -89.9 0)" id="0Wxs6pDvd_b6QSxOmUY1k"  >
<path style="stroke: rgb(236,16,124); stroke-width: 0; stroke-dasharray: none; stroke-linecap: butt; stroke-dashoffset: 0; stroke-linejoin: miter; stroke-miterlimit: 4; fill: rgb(88,100,105); fill-rule: nonzero; opacity: 1;" vector-effect="non-scaling-stroke"  transform=" translate(0, 0)" d="M 0 -49.50495 C 27.32673 -49.50495 49.50495 -27.32673 49.50495 0 C 49.50495 27.32673 27.32673 49.50495 0 49.50495 C -27.32673 49.50495 -49.50495 27.32673 -49.50495 0 C -49.50495 -27.32673 -27.32673 -49.50495 0 -49.50495 z" stroke-linecap="round" />
</g>
		<g transform="matrix(1.21 0 0 1.21 89.9 0)" id="E7yEI3C668ES6TdoOSu02"  >
<path style="stroke: rgb(236,16,124); stroke-width: 0; stroke-dasharray: none; stroke-linecap: butt; stroke-dashoffset: 0; stroke-linejoin: miter; stroke-miterlimit: 4; fill: rgb(88,100,105); fill-rule: nonzero; opacity: 1;" vector-effect="non-scaling-stroke"  transform=" translate(0, 0)" d="M 0 -49.50495 C 27.32673 -49.50495 49.50495 -27.32673 49.50495 0 C 49.50495 27.32673 27.32673 49.50495 0 49.50495 C -27.32673 49.50495 -49.50495 27.32673 -49.50495 0 C -49.50495 -27.32673 -27.32673 -49.50495 0 -49.50495 z" stroke-linecap="round" />
</g>
</g>
</g>
		<g transform="matrix(1.55 0 0 1.04 -0.2 0)" id="fF_1QMDrNhr2HP5K1K4xs"  >
<path style="stroke: rgb(68,168,166); stroke-width: 0; stroke-dasharray: none; stroke-linecap: butt; stroke-dashoffset: 0; stroke-linejoin: miter; stroke-miterlimit: 4; fill: rgb(88,100,105); fill-rule: nonzero; opacity: 1;" vector-effect="non-scaling-stroke"  transform=" translate(0, 0)" d="M -57.92079 -57.92079 L 57.92079 -57.92079 L 57.92079 57.92079 L -57.92079 57.92079 z" stroke-linecap="round" />
</g>
</g>
</g>
</g>
</g>
</svg>